<svg width="800" height="600" xmlns="http://www.w3.org/2000/svg">
 <!-- Created with Method Draw - http://github.com/duopixel/Method-Draw/ -->
 <g>
  <title>background</title>
  <rect fill="#fff" id="canvas_background" height="602" width="802" y="-1" x="-1"/>
  <g display="none" overflow="visible" y="0" x="0" height="100%" width="100%" id="canvasGrid">
   <rect fill="url(#gridpattern)" stroke-width="0" y="0" x="0" height="100%" width="100%"/>
  </g>
 </g>
 <g>
  <title>Layer 1</title>
  <path transform="rotate(-24 389.3083496093748,188.45590209960938) " stroke="#000" d="m392.385183,144.453125c1.417035,0.803683 3.885884,1.270416 7.439435,2.009208c2.119563,0.440661 4.295983,1.024017 7.085176,2.009208c2.889921,1.020767 5.499477,2.506623 9.210729,5.625783c2.624248,2.205579 5.798815,5.531233 7.793694,9.242358c1.89879,3.532363 4.413099,6.954143 5.313882,12.457091c0.258688,1.580357 0.056748,2.416237 0,2.812891c-0.179443,1.254326 -1.883708,2.937743 -4.959623,4.420258c-2.68865,1.295862 -6.3327,2.409676 -10.627764,2.812891c-6.354928,0.596594 -14.87887,0 -25.860893,0c-9.210729,0 -17.104615,-0.627087 -24.443858,1.205525c-3.612087,0.901936 -6.835309,1.237937 -9.210729,3.616575c-1.915125,1.917724 -2.714981,4.722203 -3.542588,7.634991c-1.001888,3.526182 -2.392879,9.211589 0,18.082874c1.067112,3.95618 4.13561,7.874051 7.439435,10.447883c2.876061,2.240591 5.44567,2.163958 6.730917,3.214733c0.812861,0.664569 1.417035,0.803683 3.542588,0.803683c3.188329,0 6.376658,0 12.753317,0c4.605364,0 10.982023,0 17.358681,0c4.251106,0 7.07203,0.070342 10.273505,0.803683c3.88236,0.889317 7.085176,0.803683 9.919247,0.803683c2.125553,0 3.188329,0 4.251106,0c0.708518,0 1.492021,-0.28696 2.479812,-1.205525c0.387438,-0.360294 1.062776,-0.401842 1.771294,-0.803683l0.354259,0l0.708518,-0.401842l1.062776,-0.401842" id="svg_1" stroke-width="1.5" fill="none"/>
 </g>
</svg>